<svg width="282" height="28" viewBox="0 0 282 28" fill="none" xmlns="http://www.w3.org/2000/svg">
<path d="M0.910969 27V2.18H5.16097V12.142H11.825V2.18H16.075V27H11.825V16.086H5.16097V27H0.910969ZM21.2637 27V23.124H27.7917V12.142H22.1137V8.3H31.8717V23.124H37.6517V27H21.2637ZM29.4917 5.172C28.6304 5.172 27.9504 4.95667 27.4517 4.526C26.953 4.07267 26.7037 3.472 26.7037 2.724C26.7037 1.976 26.953 1.38667 27.4517 0.955999C27.9504 0.502666 28.6304 0.276 29.4917 0.276C30.353 0.276 31.033 0.502666 31.5317 0.955999C32.0304 1.38667 32.2797 1.976 32.2797 2.724C32.2797 3.472 32.0304 4.07267 31.5317 4.526C31.033 4.95667 30.353 5.172 29.4917 5.172ZM47.7024 19.078L46.9544 6.872V2.18H51.5784V6.872L50.8304 19.078H47.7024ZM48.7564 27.17C48.0537 27.17 47.4871 26.966 47.0564 26.558C46.6257 26.1273 46.4104 25.5833 46.4104 24.926C46.4104 24.2687 46.6257 23.736 47.0564 23.328C47.4871 22.8973 48.0537 22.682 48.7564 22.682H49.7764C50.5017 22.682 51.0684 22.886 51.4764 23.294C51.9071 23.702 52.1224 24.246 52.1224 24.926C52.1224 25.5833 51.9071 26.1273 51.4764 26.558C51.0457 26.966 50.4677 27.17 49.7424 27.17H48.7564ZM82.8998 27V23.26H87.8978V5.92H82.8998V2.18H97.1798V5.92H92.1818V23.26H97.1798V27H82.8998ZM128.739 27.34C126.813 27.34 125.294 26.83 124.183 25.81C123.073 24.79 122.517 23.4187 122.517 21.696C122.517 19.86 123.129 18.4433 124.353 17.446C125.577 16.4487 127.311 15.95 129.555 15.95H134.213V14.352C134.213 13.4453 133.919 12.7427 133.329 12.244C132.74 11.7227 131.935 11.462 130.915 11.462C129.986 11.462 129.215 11.666 128.603 12.074C127.991 12.482 127.629 13.0373 127.515 13.74H123.367C123.571 11.972 124.365 10.5667 125.747 9.524C127.13 8.48133 128.898 7.96 131.051 7.96C133.341 7.96 135.143 8.538 136.457 9.694C137.795 10.8273 138.463 12.3687 138.463 14.318V27H134.349V23.736H133.669L134.349 22.818C134.349 24.2007 133.839 25.3 132.819 26.116C131.799 26.932 130.439 27.34 128.739 27.34ZM130.133 24.144C131.335 24.144 132.309 23.838 133.057 23.226C133.828 22.614 134.213 21.8207 134.213 20.846V18.568H129.623C128.762 18.568 128.071 18.8173 127.549 19.316C127.028 19.8147 126.767 20.472 126.767 21.288C126.767 22.172 127.062 22.8747 127.651 23.396C128.263 23.8947 129.091 24.144 130.133 24.144ZM142.768 27V8.3H146.236V10.816H146.95L146.372 11.428C146.372 10.3853 146.667 9.54667 147.256 8.912C147.845 8.27733 148.605 7.96 149.534 7.96C150.531 7.96 151.302 8.368 151.846 9.184C152.413 10 152.696 11.0993 152.696 12.482L151.948 10.816H153.104L152.662 11.428C152.662 10.3853 152.957 9.54667 153.546 8.912C154.135 8.27733 154.917 7.96 155.892 7.96C157.048 7.96 157.966 8.39067 158.646 9.252C159.326 10.1133 159.666 11.2807 159.666 12.754V27H155.926V12.924C155.926 12.312 155.79 11.836 155.518 11.496C155.246 11.1333 154.849 10.952 154.328 10.952C153.829 10.952 153.433 11.122 153.138 11.462C152.866 11.802 152.73 12.2893 152.73 12.924V27H149.67V12.924C149.67 12.2893 149.534 11.802 149.262 11.462C148.99 11.122 148.593 10.952 148.072 10.952C147.551 10.952 147.154 11.122 146.882 11.462C146.633 11.802 146.508 12.2893 146.508 12.924V27H142.768ZM184.391 27V2.18H188.641V12.142H195.305V2.18H199.555V27H195.305V16.086H188.641V27H184.391ZM210.286 27.34C208.359 27.34 206.841 26.83 205.73 25.81C204.619 24.79 204.064 23.4187 204.064 21.696C204.064 19.86 204.676 18.4433 205.9 17.446C207.124 16.4487 208.858 15.95 211.102 15.95H215.76V14.352C215.76 13.4453 215.465 12.7427 214.876 12.244C214.287 11.7227 213.482 11.462 212.462 11.462C211.533 11.462 210.762 11.666 210.15 12.074C209.538 12.482 209.175 13.0373 209.062 13.74H204.914C205.118 11.972 205.911 10.5667 207.294 9.524C208.677 8.48133 210.445 7.96 212.598 7.96C214.887 7.96 216.689 8.538 218.004 9.694C219.341 10.8273 220.01 12.3687 220.01 14.318V27H215.896V23.736H215.216L215.896 22.818C215.896 24.2007 215.386 25.3 214.366 26.116C213.346 26.932 211.986 27.34 210.286 27.34ZM211.68 24.144C212.881 24.144 213.856 23.838 214.604 23.226C215.375 22.614 215.76 21.8207 215.76 20.846V18.568H211.17C210.309 18.568 209.617 18.8173 209.096 19.316C208.575 19.8147 208.314 20.472 208.314 21.288C208.314 22.172 208.609 22.8747 209.198 23.396C209.81 23.8947 210.637 24.144 211.68 24.144ZM234.345 27.34C232.804 27.34 231.58 26.9093 230.673 26.048C229.766 25.164 229.313 23.9627 229.313 22.444L230.265 23.43H229.313V27H225.165V2.18H229.415V7.416L229.279 11.87H230.265L229.313 12.856C229.313 11.3373 229.766 10.1473 230.673 9.286C231.58 8.402 232.804 7.96 234.345 7.96C236.226 7.96 237.734 8.606 238.867 9.898C240 11.19 240.567 12.9353 240.567 15.134V20.2C240.567 22.376 240 24.11 238.867 25.402C237.734 26.694 236.226 27.34 234.345 27.34ZM232.849 23.668C233.937 23.668 234.787 23.3507 235.399 22.716C236.011 22.0813 236.317 21.1747 236.317 19.996V15.304C236.317 14.1253 236.011 13.2187 235.399 12.584C234.787 11.9493 233.937 11.632 232.849 11.632C231.784 11.632 230.945 11.9607 230.333 12.618C229.721 13.2527 229.415 14.148 229.415 15.304V19.996C229.415 21.152 229.721 22.0587 230.333 22.716C230.945 23.3507 231.784 23.668 232.849 23.668ZM245.518 27V23.124H252.046V12.142H246.368V8.3H256.126V23.124H261.906V27H245.518ZM253.746 5.172C252.884 5.172 252.204 4.95667 251.706 4.526C251.207 4.07267 250.958 3.472 250.958 2.724C250.958 1.976 251.207 1.38667 251.706 0.955999C252.204 0.502666 252.884 0.276 253.746 0.276C254.607 0.276 255.287 0.502666 255.786 0.955999C256.284 1.38667 256.534 1.976 256.534 2.724C256.534 3.472 256.284 4.07267 255.786 4.526C255.287 4.95667 254.607 5.172 253.746 5.172ZM275.118 27.34C273.577 27.34 272.353 26.9093 271.446 26.048C270.54 25.164 270.086 23.9627 270.086 22.444L271.038 23.43H270.086V27H265.938V2.18H270.188V7.416L270.052 11.87H271.038L270.086 12.856C270.086 11.3373 270.54 10.1473 271.446 9.286C272.353 8.402 273.577 7.96 275.118 7.96C277 7.96 278.507 8.606 279.64 9.898C280.774 11.19 281.34 12.9353 281.34 15.134V20.2C281.34 22.376 280.774 24.11 279.64 25.402C278.507 26.694 277 27.34 275.118 27.34ZM273.622 23.668C274.71 23.668 275.56 23.3507 276.172 22.716C276.784 22.0813 277.09 21.1747 277.09 19.996V15.304C277.09 14.1253 276.784 13.2187 276.172 12.584C275.56 11.9493 274.71 11.632 273.622 11.632C272.557 11.632 271.718 11.9607 271.106 12.618C270.494 13.2527 270.188 14.148 270.188 15.304V19.996C270.188 21.152 270.494 22.0587 271.106 22.716C271.718 23.3507 272.557 23.668 273.622 23.668Z" fill="#F16565"/>
</svg>
